<svg xmlns="http://www.w3.org/2000/svg" width="920" height="466" style="background:#fafafa;font-family:monospace">
<defs>
<marker id="arr-gray" viewBox="0 0 10 10" refX="9" refY="5" markerWidth="5" markerHeight="5" orient="auto-start-reverse"><path d="M 0 0 L 10 5 L 0 10 z" fill="#888888"/></marker>
<marker id="arr-blue" viewBox="0 0 10 10" refX="9" refY="5" markerWidth="6" markerHeight="6" orient="auto-start-reverse"><path d="M 0 0 L 10 5 L 0 10 z" fill="#1a5276"/></marker>
<marker id="arr-red" viewBox="0 0 10 10" refX="9" refY="5" markerWidth="6" markerHeight="6" orient="auto-start-reverse"><path d="M 0 0 L 10 5 L 0 10 z" fill="#cc0000"/></marker>
<marker id="arr-green" viewBox="0 0 10 10" refX="9" refY="5" markerWidth="5" markerHeight="5" orient="auto-start-reverse"><path d="M 0 0 L 10 5 L 0 10 z" fill="#0a8a3a"/></marker>
<marker id="arr-orange" viewBox="0 0 10 10" refX="9" refY="5" markerWidth="5" markerHeight="5" orient="auto-start-reverse"><path d="M 0 0 L 10 5 L 0 10 z" fill="#b85a00"/></marker>
</defs>
<text x="60" y="28" font-size="16" fill="black" font-weight="bold">circle - best (fit=-0.00046)</text>
<text x="60" y="48" font-size="12" fill="#666">fitness = -0.00046</text>
<rect x="150" y="105" width="160" height="256" fill="#2E86AB" opacity="0.06" rx="8"/>
<text x="158" y="120" font-size="11" fill="#2E86AB" font-weight="bold">M0</text>
<rect x="330" y="105" width="160" height="256" fill="#A23B72" opacity="0.06" rx="8"/>
<text x="338" y="120" font-size="11" fill="#A23B72" font-weight="bold">M1</text>
<rect x="510" y="105" width="160" height="256" fill="#F18F01" opacity="0.06" rx="8"/>
<text x="518" y="120" font-size="11" fill="#F18F01" font-weight="bold">M2</text>
<rect x="690" y="105" width="160" height="256" fill="#C73E1D" opacity="0.06" rx="8"/>
<text x="698" y="120" font-size="11" fill="#C73E1D" font-weight="bold">M3 [OUT]</text>
<rect x="60" y="124.0" width="26" height="22" fill="#d6ecff" stroke="#0a8a3a" stroke-width="1.5" rx="3"/>
<text x="73" y="140.0" text-anchor="middle" font-size="11" fill="#0a8a3a" font-weight="bold">x0</text>
<rect x="60" y="152.0" width="26" height="22" fill="#d6ecff" stroke="#0a8a3a" stroke-width="1.5" rx="3"/>
<text x="73" y="168.0" text-anchor="middle" font-size="11" fill="#0a8a3a" font-weight="bold">x1</text>
<rect x="60" y="180.0" width="26" height="22" fill="#d6ecff" stroke="#0a8a3a" stroke-width="1.5" rx="3"/>
<text x="73" y="196.0" text-anchor="middle" font-size="11" fill="#0a8a3a" font-weight="bold">x2</text>
<rect x="60" y="208.0" width="26" height="22" fill="#d6ecff" stroke="#0a8a3a" stroke-width="1.5" rx="3"/>
<text x="73" y="224.0" text-anchor="middle" font-size="11" fill="#0a8a3a" font-weight="bold">x3</text>
<rect x="60" y="236.0" width="26" height="22" fill="#d6ecff" stroke="#0a8a3a" stroke-width="1.5" rx="3"/>
<text x="73" y="252.0" text-anchor="middle" font-size="11" fill="#0a8a3a" font-weight="bold">x4</text>
<rect x="60" y="264.0" width="26" height="22" fill="#d6ecff" stroke="#0a8a3a" stroke-width="1.5" rx="3"/>
<text x="73" y="280.0" text-anchor="middle" font-size="11" fill="#0a8a3a" font-weight="bold">x5</text>
<rect x="60" y="292.0" width="26" height="22" fill="#d6ecff" stroke="#0a8a3a" stroke-width="1.5" rx="3"/>
<text x="73" y="308.0" text-anchor="middle" font-size="11" fill="#0a8a3a" font-weight="bold">x6</text>
<rect x="60" y="320.0" width="26" height="22" fill="#d6ecff" stroke="#0a8a3a" stroke-width="1.5" rx="3"/>
<text x="73" y="336.0" text-anchor="middle" font-size="11" fill="#0a8a3a" font-weight="bold">x7</text>
<line x1="86.0" y1="191.0" x2="209.0" y2="187.2" stroke="#b85a00" stroke-width="1.1" opacity="1.00" marker-end="url(#arr-orange)"/>
<line x1="86.0" y1="219.0" x2="209.1" y2="231.0" stroke="#0a8a3a" stroke-width="1.1" opacity="0.16" marker-end="url(#arr-green)"/>
<line x1="86.0" y1="331.0" x2="212.6" y2="244.8" stroke="#0a8a3a" stroke-width="1.1" opacity="0.11" marker-end="url(#arr-green)"/>
<line x1="86.0" y1="247.0" x2="209.5" y2="274.9" stroke="#b85a00" stroke-width="1.1" opacity="0.73" marker-end="url(#arr-orange)"/>
<line x1="86.0" y1="275.0" x2="209.0" y2="278.8" stroke="#0a8a3a" stroke-width="1.1" opacity="0.11" marker-end="url(#arr-green)"/>
<line x1="86.0" y1="303.0" x2="209.3" y2="282.9" stroke="#0a8a3a" stroke-width="1.1" opacity="0.11" marker-end="url(#arr-green)"/>
<line x1="86.0" y1="163.0" x2="216.1" y2="310.3" stroke="#b85a00" stroke-width="1.1" opacity="0.54" marker-end="url(#arr-orange)"/>
<line x1="86.0" y1="275.0" x2="210.2" y2="319.0" stroke="#0a8a3a" stroke-width="1.1" opacity="0.15" marker-end="url(#arr-green)"/>
<line x1="86.0" y1="331.0" x2="391.9" y2="150.7" stroke="#b85a00" stroke-width="1.1" opacity="0.12" marker-end="url(#arr-orange)"/>
<line x1="86.0" y1="135.0" x2="389.2" y2="174.5" stroke="#b85a00" stroke-width="1.1" opacity="0.64" marker-end="url(#arr-orange)"/>
<line x1="86.0" y1="191.0" x2="389.0" y2="178.1" stroke="#0a8a3a" stroke-width="1.1" opacity="0.30" marker-end="url(#arr-green)"/>
<line x1="86.0" y1="219.0" x2="389.2" y2="179.9" stroke="#b85a00" stroke-width="1.1" opacity="0.39" marker-end="url(#arr-orange)"/>
<line x1="86.0" y1="247.0" x2="389.5" y2="181.6" stroke="#0a8a3a" stroke-width="1.1" opacity="0.31" marker-end="url(#arr-green)"/>
<line x1="86.0" y1="331.0" x2="391.0" y2="186.2" stroke="#0a8a3a" stroke-width="1.1" opacity="0.32" marker-end="url(#arr-green)"/>
<line x1="86.0" y1="247.0" x2="389.1" y2="216.5" stroke="#b85a00" stroke-width="1.1" opacity="0.30" marker-end="url(#arr-orange)"/>
<line x1="86.0" y1="275.0" x2="389.4" y2="218.3" stroke="#0a8a3a" stroke-width="1.1" opacity="0.55" marker-end="url(#arr-green)"/>
<line x1="86.0" y1="303.0" x2="389.7" y2="219.9" stroke="#b85a00" stroke-width="1.1" opacity="0.12" marker-end="url(#arr-orange)"/>
<line x1="86.0" y1="135.0" x2="390.2" y2="244.5" stroke="#0a8a3a" stroke-width="1.1" opacity="0.41" marker-end="url(#arr-green)"/>
<line x1="86.0" y1="135.0" x2="391.0" y2="279.8" stroke="#b85a00" stroke-width="1.1" opacity="0.37" marker-end="url(#arr-orange)"/>
<line x1="86.0" y1="191.0" x2="389.9" y2="282.7" stroke="#0a8a3a" stroke-width="1.1" opacity="0.12" marker-end="url(#arr-green)"/>
<line x1="86.0" y1="191.0" x2="390.6" y2="317.9" stroke="#b85a00" stroke-width="1.1" opacity="0.20" marker-end="url(#arr-orange)"/>
<line x1="86.0" y1="219.0" x2="390.1" y2="319.4" stroke="#b85a00" stroke-width="1.1" opacity="0.21" marker-end="url(#arr-orange)"/>
<line x1="86.0" y1="331.0" x2="389.0" y2="326.3" stroke="#b85a00" stroke-width="1.1" opacity="1.00" marker-end="url(#arr-orange)"/>
<line x1="86.0" y1="191.0" x2="569.1" y2="142.1" stroke="#0a8a3a" stroke-width="1.1" opacity="0.11" marker-end="url(#arr-green)"/>
<line x1="86.0" y1="135.0" x2="569.4" y2="229.0" stroke="#b85a00" stroke-width="1.1" opacity="0.17" marker-end="url(#arr-orange)"/>
<line x1="86.0" y1="303.0" x2="569.2" y2="235.9" stroke="#b85a00" stroke-width="1.1" opacity="0.12" marker-end="url(#arr-orange)"/>
<line x1="86.0" y1="135.0" x2="570.4" y2="318.6" stroke="#b85a00" stroke-width="1.1" opacity="0.13" marker-end="url(#arr-orange)"/>
<line x1="86.0" y1="163.0" x2="570.0" y2="319.5" stroke="#b85a00" stroke-width="1.1" opacity="0.11" marker-end="url(#arr-orange)"/>
<line x1="86.0" y1="247.0" x2="569.3" y2="322.7" stroke="#0a8a3a" stroke-width="1.1" opacity="1.00" marker-end="url(#arr-green)"/>
<line x1="86.0" y1="275.0" x2="569.1" y2="323.9" stroke="#b85a00" stroke-width="1.1" opacity="0.20" marker-end="url(#arr-orange)"/>
<line x1="86.0" y1="303.0" x2="569.0" y2="325.0" stroke="#b85a00" stroke-width="1.1" opacity="0.15" marker-end="url(#arr-orange)"/>
<line x1="86.0" y1="303.0" x2="749.6" y2="144.9" stroke="#b85a00" stroke-width="1.1" opacity="0.12" marker-end="url(#arr-orange)"/>
<line x1="86.0" y1="135.0" x2="749.0" y2="162.4" stroke="#b85a00" stroke-width="1.1" opacity="0.31" marker-end="url(#arr-orange)"/>
<line x1="86.0" y1="219.0" x2="749.1" y2="165.0" stroke="#0a8a3a" stroke-width="1.1" opacity="0.37" marker-end="url(#arr-green)"/>
<line x1="86.0" y1="247.0" x2="749.2" y2="165.8" stroke="#0a8a3a" stroke-width="1.1" opacity="0.14" marker-end="url(#arr-green)"/>
<line x1="86.0" y1="331.0" x2="749.6" y2="168.3" stroke="#b85a00" stroke-width="1.1" opacity="0.30" marker-end="url(#arr-orange)"/>
<line x1="86.0" y1="163.0" x2="749.0" y2="185.8" stroke="#0a8a3a" stroke-width="1.1" opacity="0.17" marker-end="url(#arr-green)"/>
<line x1="86.0" y1="163.0" x2="749.0" y2="208.3" stroke="#0a8a3a" stroke-width="1.1" opacity="0.16" marker-end="url(#arr-green)"/>
<line x1="86.0" y1="191.0" x2="749.0" y2="209.2" stroke="#0a8a3a" stroke-width="1.1" opacity="0.16" marker-end="url(#arr-green)"/>
<line x1="86.0" y1="163.0" x2="749.2" y2="253.4" stroke="#0a8a3a" stroke-width="1.1" opacity="0.13" marker-end="url(#arr-green)"/>
<line x1="86.0" y1="163.0" x2="749.3" y2="276.0" stroke="#0a8a3a" stroke-width="1.1" opacity="0.11" marker-end="url(#arr-green)"/>
<line x1="86.0" y1="247.0" x2="749.0" y2="278.5" stroke="#0a8a3a" stroke-width="1.1" opacity="0.76" marker-end="url(#arr-green)"/>
<line x1="86.0" y1="219.0" x2="749.2" y2="300.2" stroke="#0a8a3a" stroke-width="1.1" opacity="0.16" marker-end="url(#arr-green)"/>
<line x1="86.0" y1="275.0" x2="749.0" y2="301.9" stroke="#0a8a3a" stroke-width="1.1" opacity="0.14" marker-end="url(#arr-green)"/>
<line x1="86.0" y1="191.0" x2="749.4" y2="321.9" stroke="#0a8a3a" stroke-width="1.1" opacity="0.55" marker-end="url(#arr-green)"/>
<line x1="86.0" y1="219.0" x2="749.3" y2="322.8" stroke="#b85a00" stroke-width="1.1" opacity="0.30" marker-end="url(#arr-orange)"/>
<line x1="86.0" y1="275.0" x2="749.1" y2="324.4" stroke="#b85a00" stroke-width="1.1" opacity="0.11" marker-end="url(#arr-orange)"/>
<line x1="86.0" y1="331.0" x2="749.0" y2="326.2" stroke="#0a8a3a" stroke-width="1.1" opacity="0.25" marker-end="url(#arr-green)"/>
<path d="M 225.0 171.3 C 204.0 136.5, 256.0 136.5, 235.0 171.3" fill="none" stroke="#cc0000" stroke-width="1.6" marker-end="url(#arr-red)"/>
<text x="262" y="144.5" font-size="9" fill="#cc0000">+0.33</text>
<path d="M 225.0 264.3 C 204.0 229.5, 256.0 229.5, 235.0 264.3" fill="none" stroke="#cc0000" stroke-width="1.6" marker-end="url(#arr-red)"/>
<text x="262" y="237.5" font-size="9" fill="#cc0000">-0.27</text>
<path d="M 405.0 236.4 C 384.0 201.6, 436.0 201.6, 415.0 236.4" fill="none" stroke="#cc0000" stroke-width="1.6" marker-end="url(#arr-red)"/>
<text x="442" y="209.6" font-size="9" fill="#cc0000">-0.19</text>
<line x1="395.2" y1="208.3" x2="249.4" y2="148.0" stroke="#1a5276" stroke-width="1.3" opacity="0.23" marker-end="url(#arr-blue)"/>
<line x1="754.1" y1="207.7" x2="250.8" y2="142.7" stroke="#1a5276" stroke-width="1.3" opacity="0.74" marker-end="url(#arr-blue)"/>
<line x1="754.5" y1="275.5" x2="250.3" y2="145.3" stroke="#1a5276" stroke-width="1.3" opacity="0.16" marker-end="url(#arr-blue)"/>
<line x1="230.0" y1="217.0" x2="230.0" y2="207.5" stroke="#888888" stroke-width="0.8" opacity="0.49" marker-end="url(#arr-gray)"/>
<line x1="230.0" y1="263.5" x2="230.0" y2="207.5" stroke="#888888" stroke-width="0.8" opacity="0.30" marker-end="url(#arr-gray)"/>
<line x1="230.0" y1="310.0" x2="230.0" y2="207.5" stroke="#888888" stroke-width="0.8" opacity="0.75" marker-end="url(#arr-gray)"/>
<line x1="396.1" y1="280.9" x2="248.3" y2="196.9" stroke="#1a5276" stroke-width="1.3" opacity="0.27" marker-end="url(#arr-blue)"/>
<line x1="574.1" y1="231.0" x2="250.8" y2="189.2" stroke="#1a5276" stroke-width="1.3" opacity="0.15" marker-end="url(#arr-blue)"/>
<line x1="754.1" y1="141.4" x2="250.9" y2="184.7" stroke="#1a5276" stroke-width="1.3" opacity="0.66" marker-end="url(#arr-blue)"/>
<line x1="754.0" y1="163.9" x2="251.0" y2="185.6" stroke="#1a5276" stroke-width="1.3" opacity="0.12" marker-end="url(#arr-blue)"/>
<line x1="754.1" y1="231.6" x2="250.9" y2="188.3" stroke="#1a5276" stroke-width="1.3" opacity="0.73" marker-end="url(#arr-blue)"/>
<line x1="754.1" y1="254.2" x2="250.8" y2="189.2" stroke="#1a5276" stroke-width="1.3" opacity="0.41" marker-end="url(#arr-blue)"/>
<line x1="395.8" y1="147.3" x2="248.7" y2="223.4" stroke="#1a5276" stroke-width="1.3" opacity="0.99" marker-end="url(#arr-blue)"/>
<line x1="394.1" y1="216.0" x2="250.9" y2="230.8" stroke="#1a5276" stroke-width="1.3" opacity="0.24" marker-end="url(#arr-blue)"/>
<line x1="395.8" y1="318.7" x2="248.7" y2="242.6" stroke="#1a5276" stroke-width="1.3" opacity="0.12" marker-end="url(#arr-blue)"/>
<line x1="574.5" y1="322.0" x2="250.3" y2="238.3" stroke="#1a5276" stroke-width="1.3" opacity="1.00" marker-end="url(#arr-blue)"/>
<line x1="754.2" y1="323.3" x2="250.7" y2="236.6" stroke="#1a5276" stroke-width="1.3" opacity="0.17" marker-end="url(#arr-blue)"/>
<line x1="230.0" y1="202.5" x2="230.0" y2="258.5" stroke="#888888" stroke-width="0.8" opacity="0.11" marker-end="url(#arr-gray)"/>
<line x1="230.0" y1="249.0" x2="230.0" y2="258.5" stroke="#888888" stroke-width="0.8" opacity="0.12" marker-end="url(#arr-gray)"/>
<line x1="394.5" y1="322.0" x2="250.3" y2="284.8" stroke="#1a5276" stroke-width="1.3" opacity="0.12" marker-end="url(#arr-blue)"/>
<line x1="754.0" y1="279.5" x2="251.0" y2="279.5" stroke="#1a5276" stroke-width="1.3" opacity="0.12" marker-end="url(#arr-blue)"/>
<line x1="230.0" y1="156.0" x2="230.0" y2="305.0" stroke="#888888" stroke-width="0.8" opacity="0.40" marker-end="url(#arr-gray)"/>
<line x1="396.4" y1="222.8" x2="247.8" y2="314.9" stroke="#1a5276" stroke-width="1.3" opacity="0.77" marker-end="url(#arr-blue)"/>
<line x1="394.0" y1="326.0" x2="251.0" y2="326.0" stroke="#1a5276" stroke-width="1.3" opacity="0.15" marker-end="url(#arr-blue)"/>
<line x1="575.8" y1="147.3" x2="248.7" y2="316.4" stroke="#1a5276" stroke-width="1.3" opacity="1.00" marker-end="url(#arr-blue)"/>
<line x1="244.2" y1="225.7" x2="391.3" y2="149.6" stroke="#1a5276" stroke-width="1.3" opacity="0.22" marker-end="url(#arr-blue)"/>
<line x1="410.0" y1="272.8" x2="410.0" y2="161.0" stroke="#888888" stroke-width="0.8" opacity="0.16" marker-end="url(#arr-gray)"/>
<line x1="575.8" y1="225.7" x2="428.7" y2="149.6" stroke="#1a5276" stroke-width="1.3" opacity="0.32" marker-end="url(#arr-blue)"/>
<line x1="578.9" y1="314.5" x2="424.6" y2="155.1" stroke="#1a5276" stroke-width="1.3" opacity="0.11" marker-end="url(#arr-blue)"/>
<line x1="754.1" y1="184.5" x2="430.8" y2="142.7" stroke="#1a5276" stroke-width="1.3" opacity="0.16" marker-end="url(#arr-blue)"/>
<line x1="754.3" y1="206.7" x2="430.6" y2="144.0" stroke="#1a5276" stroke-width="1.3" opacity="0.13" marker-end="url(#arr-blue)"/>
<line x1="755.8" y1="318.7" x2="428.7" y2="149.6" stroke="#1a5276" stroke-width="1.3" opacity="0.10" marker-end="url(#arr-blue)"/>
<line x1="245.7" y1="143.2" x2="389.4" y2="172.9" stroke="#1a5276" stroke-width="1.3" opacity="0.41" marker-end="url(#arr-blue)"/>
<line x1="242.3" y1="315.8" x2="393.8" y2="190.6" stroke="#1a5276" stroke-width="1.3" opacity="0.16" marker-end="url(#arr-blue)"/>
<line x1="410.0" y1="235.6" x2="410.0" y2="198.2" stroke="#888888" stroke-width="0.8" opacity="0.65" marker-end="url(#arr-gray)"/>
<line x1="410.0" y1="310.0" x2="410.0" y2="198.2" stroke="#888888" stroke-width="0.8" opacity="0.18" marker-end="url(#arr-gray)"/>
<line x1="754.0" y1="186.1" x2="431.0" y2="177.7" stroke="#1a5276" stroke-width="1.3" opacity="0.28" marker-end="url(#arr-blue)"/>
<line x1="243.6" y1="317.6" x2="392.2" y2="225.5" stroke="#1a5276" stroke-width="1.3" opacity="0.26" marker-end="url(#arr-blue)"/>
<line x1="410.0" y1="310.0" x2="410.0" y2="235.4" stroke="#888888" stroke-width="0.8" opacity="0.39" marker-end="url(#arr-gray)"/>
<line x1="754.0" y1="210.0" x2="431.0" y2="214.1" stroke="#1a5276" stroke-width="1.3" opacity="0.39" marker-end="url(#arr-blue)"/>
<line x1="754.3" y1="276.7" x2="430.7" y2="218.1" stroke="#1a5276" stroke-width="1.3" opacity="0.14" marker-end="url(#arr-blue)"/>
<line x1="410.0" y1="193.2" x2="410.0" y2="230.6" stroke="#888888" stroke-width="0.8" opacity="0.12" marker-end="url(#arr-gray)"/>
<line x1="246.0" y1="326.0" x2="389.0" y2="326.0" stroke="#1a5276" stroke-width="1.3" opacity="0.16" marker-end="url(#arr-blue)"/>
<line x1="410.0" y1="267.6" x2="410.0" y2="305.0" stroke="#888888" stroke-width="0.8" opacity="0.22" marker-end="url(#arr-gray)"/>
<line x1="754.3" y1="259.3" x2="430.6" y2="322.0" stroke="#1a5276" stroke-width="1.3" opacity="1.00" marker-end="url(#arr-blue)"/>
<line x1="754.0" y1="303.8" x2="431.0" y2="324.6" stroke="#1a5276" stroke-width="1.3" opacity="0.11" marker-end="url(#arr-blue)"/>
<line x1="424.8" y1="208.3" x2="570.6" y2="148.0" stroke="#1a5276" stroke-width="1.3" opacity="1.00" marker-end="url(#arr-blue)"/>
<line x1="422.3" y1="278.6" x2="573.8" y2="153.4" stroke="#1a5276" stroke-width="1.3" opacity="0.27" marker-end="url(#arr-blue)"/>
<line x1="590.0" y1="310.0" x2="590.0" y2="161.0" stroke="#888888" stroke-width="0.8" opacity="0.81" marker-end="url(#arr-gray)"/>
<line x1="425.9" y1="216.0" x2="569.1" y2="230.8" stroke="#1a5276" stroke-width="1.3" opacity="0.70" marker-end="url(#arr-blue)"/>
<line x1="244.9" y1="192.3" x2="570.4" y2="318.4" stroke="#1a5276" stroke-width="1.3" opacity="0.96" marker-end="url(#arr-blue)"/>
<line x1="246.0" y1="326.0" x2="569.0" y2="326.0" stroke="#1a5276" stroke-width="1.3" opacity="0.17" marker-end="url(#arr-blue)"/>
<line x1="422.3" y1="187.4" x2="573.8" y2="312.6" stroke="#1a5276" stroke-width="1.3" opacity="0.11" marker-end="url(#arr-blue)"/>
<line x1="423.6" y1="222.8" x2="572.2" y2="314.9" stroke="#1a5276" stroke-width="1.3" opacity="0.12" marker-end="url(#arr-blue)"/>
<line x1="426.0" y1="326.0" x2="569.0" y2="326.0" stroke="#1a5276" stroke-width="1.3" opacity="0.31" marker-end="url(#arr-blue)"/>
<line x1="755.8" y1="240.3" x2="608.7" y2="316.4" stroke="#1a5276" stroke-width="1.3" opacity="0.14" marker-end="url(#arr-blue)"/>
<line x1="755.1" y1="262.0" x2="609.6" y2="318.4" stroke="#1a5276" stroke-width="1.3" opacity="0.45" marker-end="url(#arr-blue)"/>
<line x1="425.9" y1="175.6" x2="749.1" y2="142.2" stroke="#1a5276" stroke-width="1.3" opacity="1.00" marker-end="url(#arr-blue)"/>
<line x1="424.2" y1="318.7" x2="751.3" y2="149.6" stroke="#1a5276" stroke-width="1.3" opacity="0.26" marker-end="url(#arr-blue)"/>
<line x1="604.2" y1="225.7" x2="751.3" y2="149.6" stroke="#1a5276" stroke-width="1.3" opacity="0.92" marker-end="url(#arr-blue)"/>
<line x1="770.0" y1="217.0" x2="770.0" y2="161.0" stroke="#888888" stroke-width="0.8" opacity="0.18" marker-end="url(#arr-gray)"/>
<line x1="770.0" y1="263.5" x2="770.0" y2="161.0" stroke="#888888" stroke-width="0.8" opacity="0.25" marker-end="url(#arr-gray)"/>
<line x1="770.0" y1="286.8" x2="770.0" y2="161.0" stroke="#888888" stroke-width="0.8" opacity="0.16" marker-end="url(#arr-gray)"/>
<line x1="426.0" y1="141.0" x2="749.0" y2="161.9" stroke="#1a5276" stroke-width="1.3" opacity="0.72" marker-end="url(#arr-blue)"/>
<line x1="601.9" y1="315.3" x2="754.4" y2="177.3" stroke="#1a5276" stroke-width="1.3" opacity="0.10" marker-end="url(#arr-blue)"/>
<line x1="245.9" y1="141.4" x2="749.1" y2="184.7" stroke="#1a5276" stroke-width="1.3" opacity="0.30" marker-end="url(#arr-blue)"/>
<line x1="426.0" y1="177.6" x2="749.0" y2="186.0" stroke="#1a5276" stroke-width="1.3" opacity="0.20" marker-end="url(#arr-blue)"/>
<line x1="770.0" y1="156.0" x2="770.0" y2="165.5" stroke="#888888" stroke-width="0.8" opacity="0.14" marker-end="url(#arr-gray)"/>
<line x1="245.9" y1="277.5" x2="749.2" y2="212.4" stroke="#1a5276" stroke-width="1.3" opacity="0.27" marker-end="url(#arr-blue)"/>
<line x1="425.7" y1="143.0" x2="749.4" y2="205.8" stroke="#1a5276" stroke-width="1.3" opacity="0.11" marker-end="url(#arr-blue)"/>
<line x1="425.9" y1="249.8" x2="749.1" y2="212.2" stroke="#1a5276" stroke-width="1.3" opacity="0.34" marker-end="url(#arr-blue)"/>
<line x1="770.0" y1="156.0" x2="770.0" y2="188.8" stroke="#888888" stroke-width="0.8" opacity="0.24" marker-end="url(#arr-gray)"/>
<line x1="770.0" y1="240.2" x2="770.0" y2="230.8" stroke="#888888" stroke-width="0.8" opacity="0.66" marker-end="url(#arr-gray)"/>
<line x1="426.0" y1="215.2" x2="749.0" y2="231.9" stroke="#1a5276" stroke-width="1.3" opacity="0.10" marker-end="url(#arr-blue)"/>
<line x1="425.8" y1="286.3" x2="749.2" y2="236.2" stroke="#1a5276" stroke-width="1.3" opacity="0.78" marker-end="url(#arr-blue)"/>
<line x1="425.5" y1="322.0" x2="749.7" y2="238.3" stroke="#1a5276" stroke-width="1.3" opacity="0.78" marker-end="url(#arr-blue)"/>
<line x1="770.0" y1="156.0" x2="770.0" y2="212.0" stroke="#888888" stroke-width="0.8" opacity="0.33" marker-end="url(#arr-gray)"/>
<line x1="770.0" y1="179.2" x2="770.0" y2="212.0" stroke="#888888" stroke-width="0.8" opacity="0.35" marker-end="url(#arr-gray)"/>
<line x1="245.6" y1="143.4" x2="749.5" y2="251.8" stroke="#1a5276" stroke-width="1.3" opacity="0.12" marker-end="url(#arr-blue)"/>
<line x1="246.0" y1="278.8" x2="749.0" y2="257.2" stroke="#1a5276" stroke-width="1.3" opacity="0.42" marker-end="url(#arr-blue)"/>
<line x1="426.0" y1="251.8" x2="749.0" y2="256.0" stroke="#1a5276" stroke-width="1.3" opacity="1.00" marker-end="url(#arr-blue)"/>
<line x1="245.9" y1="324.6" x2="749.1" y2="281.3" stroke="#1a5276" stroke-width="1.3" opacity="0.28" marker-end="url(#arr-blue)"/>
<line x1="426.0" y1="252.8" x2="749.1" y2="277.9" stroke="#1a5276" stroke-width="1.3" opacity="0.39" marker-end="url(#arr-blue)"/>
<line x1="605.5" y1="237.0" x2="749.7" y2="274.2" stroke="#1a5276" stroke-width="1.3" opacity="0.35" marker-end="url(#arr-blue)"/>
<line x1="770.0" y1="249.0" x2="770.0" y2="258.5" stroke="#888888" stroke-width="0.8" opacity="0.12" marker-end="url(#arr-gray)"/>
<line x1="245.9" y1="235.0" x2="749.2" y2="300.1" stroke="#1a5276" stroke-width="1.3" opacity="0.15" marker-end="url(#arr-blue)"/>
<line x1="246.0" y1="280.2" x2="749.0" y2="301.8" stroke="#1a5276" stroke-width="1.3" opacity="0.20" marker-end="url(#arr-blue)"/>
<line x1="424.6" y1="146.6" x2="750.9" y2="294.1" stroke="#1a5276" stroke-width="1.3" opacity="0.90" marker-end="url(#arr-blue)"/>
<line x1="425.1" y1="182.5" x2="750.2" y2="295.8" stroke="#1a5276" stroke-width="1.3" opacity="0.26" marker-end="url(#arr-blue)"/>
<line x1="426.0" y1="325.0" x2="749.0" y2="304.1" stroke="#1a5276" stroke-width="1.3" opacity="0.19" marker-end="url(#arr-blue)"/>
<line x1="604.9" y1="238.8" x2="750.4" y2="295.2" stroke="#1a5276" stroke-width="1.3" opacity="0.46" marker-end="url(#arr-blue)"/>
<line x1="605.9" y1="324.0" x2="749.2" y2="305.4" stroke="#1a5276" stroke-width="1.3" opacity="0.33" marker-end="url(#arr-blue)"/>
<line x1="770.0" y1="249.0" x2="770.0" y2="281.8" stroke="#888888" stroke-width="0.8" opacity="0.22" marker-end="url(#arr-gray)"/>
<line x1="245.1" y1="145.2" x2="750.1" y2="319.2" stroke="#1a5276" stroke-width="1.3" opacity="0.11" marker-end="url(#arr-blue)"/>
<line x1="424.2" y1="147.3" x2="751.3" y2="316.4" stroke="#1a5276" stroke-width="1.3" opacity="0.98" marker-end="url(#arr-blue)"/>
<line x1="425.7" y1="254.8" x2="749.4" y2="321.7" stroke="#1a5276" stroke-width="1.3" opacity="0.55" marker-end="url(#arr-blue)"/>
<line x1="425.9" y1="290.4" x2="749.1" y2="323.8" stroke="#1a5276" stroke-width="1.3" opacity="0.20" marker-end="url(#arr-blue)"/>
<line x1="770.0" y1="272.2" x2="770.0" y2="305.0" stroke="#888888" stroke-width="0.8" opacity="1.00" marker-end="url(#arr-gray)"/>
<circle cx="230" cy="140.0" r="16" fill="#2E86AB" stroke="black" stroke-width="1.5"/>
<text x="230" y="144.0" text-anchor="middle" font-size="10" fill="white" font-weight="bold">0</text>
<circle cx="230" cy="186.5" r="16" fill="#2E86AB" stroke="black" stroke-width="1.5"/>
<text x="230" y="190.5" text-anchor="middle" font-size="10" fill="white" font-weight="bold">1</text>
<circle cx="230" cy="233.0" r="16" fill="#2E86AB" stroke="black" stroke-width="1.5"/>
<text x="230" y="237.0" text-anchor="middle" font-size="10" fill="white" font-weight="bold">2</text>
<circle cx="230" cy="279.5" r="16" fill="#2E86AB" stroke="black" stroke-width="1.5"/>
<text x="230" y="283.5" text-anchor="middle" font-size="10" fill="white" font-weight="bold">3</text>
<circle cx="230" cy="326.0" r="16" fill="#2E86AB" stroke="black" stroke-width="1.5"/>
<text x="230" y="330.0" text-anchor="middle" font-size="10" fill="white" font-weight="bold">4</text>
<circle cx="410" cy="140.0" r="16" fill="#A23B72" stroke="black" stroke-width="1.5"/>
<text x="410" y="144.0" text-anchor="middle" font-size="10" fill="white" font-weight="bold">5</text>
<circle cx="410" cy="177.2" r="16" fill="#A23B72" stroke="black" stroke-width="1.5"/>
<text x="410" y="181.2" text-anchor="middle" font-size="10" fill="white" font-weight="bold">6</text>
<circle cx="410" cy="214.4" r="16" fill="#A23B72" stroke="black" stroke-width="1.5"/>
<text x="410" y="218.4" text-anchor="middle" font-size="10" fill="white" font-weight="bold">7</text>
<circle cx="410" cy="251.6" r="16" fill="#A23B72" stroke="black" stroke-width="1.5"/>
<text x="410" y="255.6" text-anchor="middle" font-size="10" fill="white" font-weight="bold">8</text>
<circle cx="410" cy="288.8" r="16" fill="#A23B72" stroke="black" stroke-width="1.5"/>
<text x="410" y="292.8" text-anchor="middle" font-size="10" fill="white" font-weight="bold">9</text>
<circle cx="410" cy="326.0" r="16" fill="#A23B72" stroke="black" stroke-width="1.5"/>
<text x="410" y="330.0" text-anchor="middle" font-size="10" fill="white" font-weight="bold">10</text>
<circle cx="590" cy="140.0" r="16" fill="#F18F01" stroke="black" stroke-width="1.5"/>
<text x="590" y="144.0" text-anchor="middle" font-size="10" fill="white" font-weight="bold">11</text>
<circle cx="590" cy="233.0" r="16" fill="#F18F01" stroke="black" stroke-width="1.5"/>
<text x="590" y="237.0" text-anchor="middle" font-size="10" fill="white" font-weight="bold">12</text>
<circle cx="590" cy="326.0" r="16" fill="#F18F01" stroke="black" stroke-width="1.5"/>
<text x="590" y="330.0" text-anchor="middle" font-size="10" fill="white" font-weight="bold">13</text>
<circle cx="770" cy="140.0" r="16" fill="#C73E1D" stroke="#cc0000" stroke-width="3"/>
<text x="770" y="144.0" text-anchor="middle" font-size="10" fill="white" font-weight="bold">14</text>
<circle cx="770" cy="163.25" r="16" fill="#C73E1D" stroke="#cc0000" stroke-width="3"/>
<text x="770" y="167.25" text-anchor="middle" font-size="10" fill="white" font-weight="bold">15</text>
<circle cx="770" cy="186.5" r="16" fill="#C73E1D" stroke="#cc0000" stroke-width="3"/>
<text x="770" y="190.5" text-anchor="middle" font-size="10" fill="white" font-weight="bold">16</text>
<circle cx="770" cy="209.75" r="16" fill="#C73E1D" stroke="#cc0000" stroke-width="3"/>
<text x="770" y="213.75" text-anchor="middle" font-size="10" fill="white" font-weight="bold">17</text>
<circle cx="770" cy="233.0" r="16" fill="#C73E1D" stroke="#cc0000" stroke-width="3"/>
<text x="770" y="237.0" text-anchor="middle" font-size="10" fill="white" font-weight="bold">18</text>
<circle cx="770" cy="256.25" r="16" fill="#C73E1D" stroke="#cc0000" stroke-width="3"/>
<text x="770" y="260.25" text-anchor="middle" font-size="10" fill="white" font-weight="bold">19</text>
<circle cx="770" cy="279.5" r="16" fill="#C73E1D" stroke="#cc0000" stroke-width="3"/>
<text x="770" y="283.5" text-anchor="middle" font-size="10" fill="white" font-weight="bold">20</text>
<circle cx="770" cy="302.75" r="16" fill="#C73E1D" stroke="#cc0000" stroke-width="3"/>
<text x="770" y="306.75" text-anchor="middle" font-size="10" fill="white" font-weight="bold">21</text>
<circle cx="770" cy="326.0" r="16" fill="#C73E1D" stroke="black" stroke-width="1.5"/>
<text x="770" y="330.0" text-anchor="middle" font-size="10" fill="white" font-weight="bold">22</text>
<line x1="790" y1="140.0" x2="812" y2="140.0" stroke="#cc0000" stroke-width="2.5"/>
<text x="816" y="144.0" font-size="10" fill="#cc0000" font-weight="bold">out</text>
<line x1="790" y1="163.25" x2="812" y2="163.25" stroke="#cc0000" stroke-width="2.5"/>
<text x="816" y="167.25" font-size="10" fill="#cc0000" font-weight="bold">out</text>
<line x1="790" y1="186.5" x2="812" y2="186.5" stroke="#cc0000" stroke-width="2.5"/>
<text x="816" y="190.5" font-size="10" fill="#cc0000" font-weight="bold">out</text>
<line x1="790" y1="209.75" x2="812" y2="209.75" stroke="#cc0000" stroke-width="2.5"/>
<text x="816" y="213.75" font-size="10" fill="#cc0000" font-weight="bold">out</text>
<line x1="790" y1="233.0" x2="812" y2="233.0" stroke="#cc0000" stroke-width="2.5"/>
<text x="816" y="237.0" font-size="10" fill="#cc0000" font-weight="bold">out</text>
<line x1="790" y1="256.25" x2="812" y2="256.25" stroke="#cc0000" stroke-width="2.5"/>
<text x="816" y="260.25" font-size="10" fill="#cc0000" font-weight="bold">out</text>
<line x1="790" y1="279.5" x2="812" y2="279.5" stroke="#cc0000" stroke-width="2.5"/>
<text x="816" y="283.5" font-size="10" fill="#cc0000" font-weight="bold">out</text>
<line x1="790" y1="302.75" x2="812" y2="302.75" stroke="#cc0000" stroke-width="2.5"/>
<text x="816" y="306.75" font-size="10" fill="#cc0000" font-weight="bold">out</text>
<line x1="60" y1="444" x2="82" y2="444" stroke="#888888" stroke-width="2.5"/>
<text x="88" y="448" font-size="10" fill="#333">intra-module</text>
<line x1="200" y1="444" x2="222" y2="444" stroke="#1a5276" stroke-width="2.5"/>
<text x="228" y="448" font-size="10" fill="#333">cross-module</text>
<line x1="340" y1="444" x2="362" y2="444" stroke="#cc0000" stroke-width="2.5"/>
<text x="368" y="448" font-size="10" fill="#333">self-loop</text>
<line x1="480" y1="444" x2="502" y2="444" stroke="#0a8a3a" stroke-width="2.5"/>
<text x="508" y="448" font-size="10" fill="#333">input (+)</text>
<line x1="620" y1="444" x2="642" y2="444" stroke="#b85a00" stroke-width="2.5"/>
<text x="648" y="448" font-size="10" fill="#333">input (−)</text>
</svg>